<svg width="102" height="74" viewBox="0 0 102 74" fill="none" xmlns="http://www.w3.org/2000/svg">
    <path
        d="M27.6359 1.00005C19.0031 2.96005 11.6375 10.24 9.61793 18.84C9.30113 20.24 9.02393 22.16 9.02393 23.08C9.02393 24.72 9.06353 24.76 10.0535 24.4C11.7959 23.72 15.2015 23.96 17.8943 24.96C25.1411 27.6 32.3879 34.08 32.3879 37.92C32.3879 38.4 32.7443 39.08 33.1403 39.44C35.7143 41.64 36.3479 42.44 36.3479 43.32C36.3479 44.44 36.9815 44.8 38.9219 44.8C42.7631 44.8 46.9607 42 49.6139 37.64C51.2771 34.84 53.6135 32.6 56.1083 31.44C58.9199 30.12 64.0679 30.32 70.4039 31.96C79.0763 34.2 87.4715 34.12 91.8671 31.72C93.6491 30.76 93.7283 30.64 94.1243 28.24C95.1935 22.08 93.8075 15.88 90.2039 10.6C89.5307 9.60005 88.8179 8.80005 88.5803 8.80005C88.3823 8.80005 86.0855 10.84 83.5115 13.28C80.9375 15.76 77.7695 18.44 76.4231 19.2C74.8391 20.12 73.8491 21 73.4927 21.76C70.5227 28.92 60.2267 29.4 56.9003 22.52C53.8511 16.2 58.2071 9.08005 65.0975 9.16005C67.6319 9.16005 69.3743 9.88005 71.3147 11.6L72.7799 12.88L74.8787 11.28C75.9875 10.36 78.2447 8.28005 79.8683 6.64005L82.7987 3.68005L81.2543 2.88005C72.9383 -1.39995 62.5235 0.24005 54.9995 6.96005C53.3759 8.44005 51.9107 9.60005 51.7523 9.60005C51.5939 9.60005 50.4059 8.68005 49.1387 7.56005C47.8715 6.40005 45.9311 4.88005 44.7827 4.16005C40.1891 1.12005 32.9027 -0.19995 27.6359 1.00005Z"
        fill="#D9D9D9" />
    <path
        d="M89.61 2.80006C87.3924 3.28006 85.9668 4.36006 80.8584 9.28006C76.344 13.6001 72.78 16.4001 71.7108 16.4001C71.5128 16.4001 71.0376 15.7601 70.6416 15.0001C67.7508 9.60006 59.316 11.3201 58.6032 17.4001C58.3656 19.6801 58.6824 20.8401 59.9496 22.4001C61.3356 24.0401 62.9988 24.8801 65.058 24.8801C67.9092 24.8801 70.5228 22.9601 71.2356 20.3201C71.5524 19.0801 71.9484 18.6401 73.4928 17.8401C76.3044 16.4001 78.2844 14.8001 82.7592 10.4801C85.0164 8.32006 87.3528 6.16006 87.9864 5.68006C89.412 4.60006 91.3524 4.56006 92.6592 5.60006C94.956 7.40006 98.2428 15.8801 98.8368 21.4001C99.3516 26.2801 98.2824 29.9201 95.55 32.3201C93.6492 34.0401 92.2632 34.7201 88.7388 35.6401C83.5116 36.9601 78.6012 36.6401 69.0576 34.3601C65.0184 33.4001 63.276 33.1601 60.9396 33.2801C56.0688 33.5201 55.1976 34.1601 50.2872 41.1201C47.5548 44.9601 43.476 47.2401 39.12 47.3201C37.2984 47.3601 33.18 46.5601 33.18 46.1601C33.18 46.1201 33.378 45.5601 33.576 45.0001C34.1304 43.5201 33.5364 42.6401 31.6356 42.0401C30.0912 41.6001 30.012 41.5201 30.012 39.8801C30.012 38.9601 29.6556 37.4801 29.2596 36.6001C27.8736 33.4801 21.8148 29.0001 16.6668 27.2401C13.2612 26.0801 11.9148 26.1601 9.57837 27.6801C8.50917 28.3601 7.16277 28.9601 6.52917 29.0001C4.39077 29.2001 3.20277 31.1201 3.91557 33.2001C4.39077 34.5601 5.30157 35.2001 6.84597 35.2001C9.02397 35.2001 10.3704 33.4001 9.81597 31.2001C9.45957 29.7201 11.0436 28.6001 13.4196 28.6401C15.6768 28.6801 20.8248 31.1601 24.1908 33.8401C27.2004 36.2001 28.1904 38.2801 27.9528 41.8001C27.7548 44.7601 26.052 47.8401 23.7552 49.2801C22.4484 50.1201 21.7752 50.2001 17.538 50.2001C10.1724 50.2001 5.93517 48.6801 5.22237 45.8401C5.06397 45.0801 5.22237 44.5201 6.01437 43.5601C7.32117 42.0401 7.32117 40.6401 6.05397 39.4001C4.70757 38.0001 2.64837 38.0401 1.53957 39.4401C0.391168 40.9201 0.470368 42.6001 1.73757 43.8801C2.29197 44.4401 3.00477 45.6401 3.32157 46.5201C3.63837 47.4401 4.19277 48.5201 4.58877 48.9201C6.44997 51.0001 11.6376 52.4001 17.538 52.4401C22.5672 52.4401 24.1512 51.9601 26.448 49.6401C28.032 48.0401 28.4676 47.8001 29.22 48.0801C29.7348 48.2801 30.804 48.4001 31.5564 48.3601C32.3484 48.3201 34.1304 48.6001 35.4768 49.0001C41.7732 50.6801 48.3072 47.8001 52.7028 41.4001C57.2568 34.6801 59.1972 34.0801 68.5824 36.4001C74.6412 37.9201 78.0072 38.4001 82.482 38.4001C90.8376 38.4001 97.134 35.4401 99.708 30.3601C101.609 26.6401 101.45 20.4001 99.312 13.9201C96.54 5.60006 93.372 1.96006 89.61 2.80006Z"
        fill="#5E17EB" />
    <path
        d="M12.5879 32.16C12.5879 32.72 12.4295 33.6 12.1919 34.2C11.7167 35.44 12.1523 36.48 14.3303 39.2C15.7559 41 22.0127 46.8 22.5671 46.8C22.7255 46.8 23.3987 46.04 24.0719 45.12C25.0619 43.8 25.2599 43.08 25.2599 41.32C25.2599 40.12 25.0223 38.68 24.7055 38.04C23.9927 36.68 20.1515 33.92 16.7459 32.36C13.5383 30.92 12.5879 30.84 12.5879 32.16Z"
        fill="#5E17EB" />
    <path
        d="M58.2467 38.6C57.7715 38.92 56.4251 40.6 55.2371 42.28C52.3859 46.4 50.0099 48.56 46.3271 50.32C43.4363 51.72 43.0799 51.8 39.1199 51.8C36.8231 51.8 33.6155 51.56 31.9919 51.32C29.4971 50.92 28.9427 50.92 28.4675 51.4C28.1507 51.72 27.9527 52.04 28.0715 52.12C28.1507 52.2 33.5363 57.08 39.9911 62.96L51.7523 73.64L67.5131 59.36C76.1855 51.48 84.2639 44.12 85.5311 42.92L87.7487 40.8L84.3431 41.04C79.9475 41.36 74.6015 40.72 68.6219 39.2C63.3947 37.88 59.5931 37.64 58.2467 38.6Z"
        fill="#5E17EB" />
</svg>
    