<svg width="48" height="48" viewBox="0 0 48 48" fill="none" xmlns="http://www.w3.org/2000/svg">
    <circle cx="24" cy="24" r="24" fill="url(#paint0_linear_0_1)" />
    <path
        d="M21.75 22.3334C21.75 22.1685 21.6987 22.0074 21.6025 21.8704C21.5064 21.7333 21.3697 21.6265 21.2099 21.5635C21.05 21.5004 20.874 21.4839 20.7043 21.516C20.5346 21.5482 20.3787 21.6276 20.2563 21.7441C20.1339 21.8606 20.0506 22.0091 20.0168 22.1708C19.9831 22.3324 20.0004 22.5 20.0666 22.6523C20.1328 22.8045 20.245 22.9347 20.3889 23.0262C20.5328 23.1178 20.7019 23.1667 20.875 23.1667C21.1071 23.1667 21.3296 23.0789 21.4937 22.9226C21.6578 22.7663 21.75 22.5544 21.75 22.3334ZM25.6875 25.7167C25.5882 25.6612 25.4783 25.625 25.3642 25.6101C25.2502 25.5952 25.1341 25.6018 25.0227 25.6297C24.9114 25.6576 24.8069 25.7061 24.7152 25.7725C24.6236 25.8389 24.5466 25.9219 24.4888 26.0167C24.3894 26.183 24.2456 26.3213 24.0719 26.4175C23.8983 26.5137 23.7009 26.5644 23.5 26.5644C23.2991 26.5644 23.1018 26.5137 22.9281 26.4175C22.7544 26.3213 22.6106 26.183 22.5113 26.0167C22.4534 25.9219 22.3764 25.8389 22.2848 25.7725C22.1931 25.7061 22.0886 25.6576 21.9773 25.6297C21.8659 25.6018 21.7499 25.5952 21.6358 25.6101C21.5217 25.625 21.4118 25.6612 21.3125 25.7167C21.1124 25.8266 20.966 26.0075 20.9053 26.2198C20.8447 26.4321 20.8747 26.6587 20.9888 26.85C21.2425 27.2707 21.6083 27.6202 22.0493 27.8632C22.4902 28.1062 22.9906 28.2342 23.5 28.2342C24.0094 28.2342 24.5098 28.1062 24.9508 27.8632C25.3917 27.6202 25.7575 27.2707 26.0113 26.85C26.1253 26.6587 26.1553 26.4321 26.0947 26.2198C26.034 26.0075 25.8876 25.8266 25.6875 25.7167ZM26.125 21.5C25.9519 21.5 25.7828 21.5489 25.6389 21.6405C25.495 21.732 25.3828 21.8622 25.3166 22.0145C25.2504 22.1667 25.2331 22.3343 25.2668 22.4959C25.3006 22.6576 25.3839 22.8061 25.5063 22.9226C25.6287 23.0392 25.7846 23.1185 25.9543 23.1507C26.124 23.1828 26.3 23.1663 26.4599 23.1033C26.6197 23.0402 26.7564 22.9334 26.8525 22.7963C26.9487 22.6593 27 22.4982 27 22.3334C27 22.1123 26.9078 21.9004 26.7437 21.7441C26.5796 21.5878 26.3571 21.5 26.125 21.5ZM23.5 15.6667C21.7694 15.6667 20.0777 16.1554 18.6388 17.0711C17.1998 17.9868 16.0783 19.2883 15.4161 20.811C14.7538 22.3337 14.5805 24.0093 14.9181 25.6258C15.2558 27.2423 16.0891 28.7271 17.3128 29.8926C18.5365 31.058 20.0956 31.8517 21.793 32.1732C23.4903 32.4948 25.2496 32.3297 26.8485 31.699C28.4473 31.0683 29.8139 30.0002 30.7754 28.6298C31.7368 27.2594 32.25 25.6482 32.25 24C32.25 22.9057 32.0237 21.822 31.5839 20.811C31.1442 19.7999 30.4997 18.8813 29.6872 18.1075C28.8747 17.3336 27.9101 16.7198 26.8485 16.301C25.7869 15.8822 24.6491 15.6667 23.5 15.6667ZM23.5 30.6667C21.8702 30.6734 20.2889 30.1382 19.029 29.1535C17.7691 28.1687 16.9095 26.7962 16.5985 25.2724C16.2874 23.7487 16.5444 22.1694 17.3251 20.8068C18.1058 19.4442 19.3612 18.3837 20.875 17.8084C20.866 17.9276 20.866 18.0474 20.875 18.1667C20.875 18.8297 21.1516 19.4656 21.6438 19.9345C22.1361 20.4033 22.8038 20.6667 23.5 20.6667C23.7321 20.6667 23.9546 20.5789 24.1187 20.4226C24.2828 20.2663 24.375 20.0544 24.375 19.8334C24.375 19.6123 24.2828 19.4004 24.1187 19.2441C23.9546 19.0878 23.7321 19 23.5 19C23.2679 19 23.0454 18.9122 22.8813 18.7559C22.7172 18.5997 22.625 18.3877 22.625 18.1667C22.625 17.9457 22.7172 17.7337 22.8813 17.5774C23.0454 17.4212 23.2679 17.3334 23.5 17.3334C25.3565 17.3334 27.137 18.0357 28.4498 19.286C29.7625 20.5362 30.5 22.2319 30.5 24C30.5 25.7681 29.7625 27.4638 28.4498 28.7141C27.137 29.9643 25.3565 30.6667 23.5 30.6667Z"
        fill="white" />
    <defs>
        <linearGradient id="paint0_linear_0_1" x1="24" y1="0" x2="24" y2="48"
            gradientUnits="userSpaceOnUse">
            <stop stop-color="#D795FF" />
            <stop offset="1" stop-color="#EE3179" />
        </linearGradient>
    </defs>
</svg>
    