<svg width="375" height="667" viewBox="0 0 375 667" fill="none" xmlns="http://www.w3.org/2000/svg">
    <g opacity="0.16">
        <mask id="mask0_1_131" style="mask-type:alpha" maskUnits="userSpaceOnUse" x="-47" y="0"
            width="468" height="667">
            <rect x="-47" width="468" height="667" rx="40" fill="url(#paint0_linear_1_131)" />
        </mask>
        <g mask="url(#mask0_1_131)">
            <path d="M-678 200.81C-304.328 -28.29 -264.723 1283.42 558.02 140.166" stroke="#4157FF"
                stroke-miterlimit="10" stroke-linecap="round" stroke-linejoin="round" />
            <path d="M-677.016 219.227C-291.29 -46.1089 -241.722 1270.99 561.34 164.124"
                stroke="#4157FF" stroke-width="0.9758" stroke-miterlimit="10" stroke-linecap="round"
                stroke-linejoin="round" />
            <path d="M-676.155 237.645C-278.253 -64.0774 -218.967 1258.41 564.415 188.082"
                stroke="#4157FF" stroke-width="0.9516" stroke-miterlimit="10" stroke-linecap="round"
                stroke-linejoin="round" />
            <path d="M-675.171 256.063C-265.091 -81.8963 -195.966 1245.98 567.737 211.89"
                stroke="#4157FF" stroke-width="0.9274" stroke-miterlimit="10" stroke-linecap="round"
                stroke-linejoin="round" />
            <path d="M-674.187 274.63C-252.054 -99.5654 -172.965 1233.7 570.934 235.998"
                stroke="#4157FF" stroke-width="0.9032" stroke-miterlimit="10" stroke-linecap="round"
                stroke-linejoin="round" />
            <path d="M-673.326 293.048C-239.016 -117.534 -150.21 1221.28 574.01 259.956"
                stroke="#4157FF" stroke-width="0.879" stroke-miterlimit="10" stroke-linecap="round"
                stroke-linejoin="round" />
            <path d="M-672.342 311.466C-225.855 -135.353 -127.209 1208.85 577.33 283.914"
                stroke="#4157FF" stroke-width="0.8548" stroke-miterlimit="10" stroke-linecap="round"
                stroke-linejoin="round" />
            <path d="M-671.358 330.034C-212.694 -153.172 -104.209 1196.57 580.528 308.022"
                stroke="#4157FF" stroke-width="0.8306" stroke-miterlimit="10" stroke-linecap="round"
                stroke-linejoin="round" />
            <path d="M-670.497 348.451C-199.779 -170.99 -81.4535 1184.14 583.604 331.83"
                stroke="#4157FF" stroke-width="0.8065" stroke-miterlimit="10" stroke-linecap="round"
                stroke-linejoin="round" />
            <path d="M-669.513 366.869C-186.618 -188.809 -58.4527 1171.71 586.924 355.788"
                stroke="#4157FF" stroke-width="0.7823" stroke-miterlimit="10" stroke-linecap="round"
                stroke-linejoin="round" />
            <path d="M-668.529 385.287C-173.457 -206.778 -35.452 1159.13 590.122 379.746"
                stroke="#4157FF" stroke-width="0.7581" stroke-miterlimit="10" stroke-linecap="round"
                stroke-linejoin="round" />
            <path d="M-667.668 403.854C-160.542 -224.447 -12.6972 1146.86 593.197 403.854"
                stroke="#4157FF" stroke-width="0.7339" stroke-miterlimit="10" stroke-linecap="round"
                stroke-linejoin="round" />
            <path d="M-666.684 422.272C-147.381 -242.266 10.3038 1134.43 596.518 427.813"
                stroke="#4157FF" stroke-width="0.7097" stroke-miterlimit="10" stroke-linecap="round"
                stroke-linejoin="round" />
            <path d="M-665.7 440.69C-134.22 -260.235 33.3046 1122 599.716 451.771" stroke="#4157FF"
                stroke-width="0.6855" stroke-miterlimit="10" stroke-linecap="round"
                stroke-linejoin="round" />
            <path d="M-664.839 459.258C-121.306 -277.904 56.0594 1109.72 602.791 475.729"
                stroke="#4157FF" stroke-width="0.6613" stroke-miterlimit="10" stroke-linecap="round"
                stroke-linejoin="round" />
            <path d="M-663.855 477.675C-108.144 -295.723 79.0605 1097.29 606.112 499.687"
                stroke="#4157FF" stroke-width="0.6371" stroke-miterlimit="10" stroke-linecap="round"
                stroke-linejoin="round" />
            <path d="M-662.871 496.093C-95.1065 -313.691 101.938 1084.86 609.31 523.645"
                stroke="#4157FF" stroke-width="0.6129" stroke-miterlimit="10" stroke-linecap="round"
                stroke-linejoin="round" />
            <path d="M-662.01 514.511C-82.0688 -331.51 124.816 1072.29 612.385 547.603"
                stroke="#4157FF" stroke-width="0.5887" stroke-miterlimit="10" stroke-linecap="round"
                stroke-linejoin="round" />
            <path d="M-661.026 533.079C-68.9075 -349.329 147.817 1060.01 615.706 571.711"
                stroke="#4157FF" stroke-width="0.5645" stroke-miterlimit="10" stroke-linecap="round"
                stroke-linejoin="round" />
            <path d="M-660.042 551.496C-55.7463 -367.148 170.818 1047.58 618.905 595.519"
                stroke="#4157FF" stroke-width="0.5403" stroke-miterlimit="10" stroke-linecap="round"
                stroke-linejoin="round" />
            <path d="M-659.181 569.914C-42.7086 -384.967 193.696 1035.15 622.102 619.478"
                stroke="#4157FF" stroke-width="0.5161" stroke-miterlimit="10" stroke-linecap="round"
                stroke-linejoin="round" />
            <path d="M-658.197 588.482C-29.6705 -402.785 216.574 1022.87 625.301 643.585"
                stroke="#4157FF" stroke-width="0.4919" stroke-miterlimit="10" stroke-linecap="round"
                stroke-linejoin="round" />
            <path d="M-657.213 606.899C-16.5098 -420.604 239.575 1010.44 628.498 667.543"
                stroke="#4157FF" stroke-width="0.4677" stroke-miterlimit="10" stroke-linecap="round"
                stroke-linejoin="round" />
            <path d="M-656.352 625.317C-3.47186 -438.423 262.452 998.016 631.573 691.502"
                stroke="#4157FF" stroke-width="0.4435" stroke-miterlimit="10" stroke-linecap="round"
                stroke-linejoin="round" />
            <path d="M-655.368 643.735C9.56551 -456.392 285.33 985.437 634.894 715.31"
                stroke="#4157FF" stroke-width="0.4194" stroke-miterlimit="10" stroke-linecap="round"
                stroke-linejoin="round" />
            <path d="M-654.384 662.303C22.7268 -474.061 308.331 973.159 638.092 739.418"
                stroke="#4157FF" stroke-width="0.3952" stroke-miterlimit="10" stroke-linecap="round"
                stroke-linejoin="round" />
            <path d="M-653.523 680.72C35.7646 -491.88 331.209 960.731 641.29 763.376"
                stroke="#4157FF" stroke-width="0.371" stroke-miterlimit="10" stroke-linecap="round"
                stroke-linejoin="round" />
            <path d="M-652.539 699.138C48.8024 -509.848 354.087 948.303 644.488 787.334"
                stroke="#4157FF" stroke-width="0.3468" stroke-miterlimit="10" stroke-linecap="round"
                stroke-linejoin="round" />
            <path d="M-651.555 717.706C61.9638 -527.517 377.088 936.024 647.686 811.442"
                stroke="#4157FF" stroke-width="0.3226" stroke-miterlimit="10" stroke-linecap="round"
                stroke-linejoin="round" />
            <path d="M-650.694 736.123C75.0012 -545.486 399.965 923.596 650.761 835.25"
                stroke="#4157FF" stroke-width="0.2984" stroke-miterlimit="10" stroke-linecap="round"
                stroke-linejoin="round" />
            <path d="M-649.71 754.541C88.039 -563.305 422.843 911.168 654.082 859.208"
                stroke="#4157FF" stroke-width="0.2742" stroke-miterlimit="10" stroke-linecap="round"
                stroke-linejoin="round" />
            <path d="M-648.726 772.959C101.2 -581.124 445.844 898.739 657.28 883.166"
                stroke="#4157FF" stroke-width="0.25" stroke-miterlimit="10" stroke-linecap="round"
                stroke-linejoin="round" />
            <path d="M535.264 718.454C32.3205 1017.03 -30.6552 478.424 -532.861 724.594"
                stroke="#4157FF" stroke-width="2.4839" stroke-miterlimit="10" stroke-linecap="round"
                stroke-linejoin="round" stroke-dasharray="1 1" />
            <path d="M536.74 704.829C21.4966 1018.38 -46.153 464.049 -533.968 699.438"
                stroke="#4157FF" stroke-width="2.4194" stroke-miterlimit="10" stroke-linecap="round"
                stroke-linejoin="round" stroke-dasharray="1 1" />
            <path d="M538.094 691.202C10.673 1019.73 -61.6506 449.674 -535.198 674.432"
                stroke="#4157FF" stroke-width="2.3548" stroke-miterlimit="10" stroke-linecap="round"
                stroke-linejoin="round" stroke-dasharray="1 1" />
            <path d="M539.57 677.576C-0.15117 1020.93 -77.1488 435.3 -536.428 649.425"
                stroke="#4157FF" stroke-width="2.2903" stroke-miterlimit="10" stroke-linecap="round"
                stroke-linejoin="round" stroke-dasharray="1 1" />
            <path d="M540.923 663.95C-11.0979 1022.42 -92.6464 420.925 -537.535 624.269"
                stroke="#4157FF" stroke-width="2.2258" stroke-miterlimit="10" stroke-linecap="round"
                stroke-linejoin="round" stroke-dasharray="1 1" />
            <path d="M542.398 650.174C-21.7991 1023.47 -108.145 406.4 -538.765 599.113"
                stroke="#4157FF" stroke-width="2.1613" stroke-miterlimit="10" stroke-linecap="round"
                stroke-linejoin="round" stroke-dasharray="1 1" />
            <path d="M543.874 636.548C-32.6231 1024.82 -123.643 392.025 -539.872 574.107"
                stroke="#4157FF" stroke-width="2.0968" stroke-miterlimit="10" stroke-linecap="round"
                stroke-linejoin="round" stroke-dasharray="1 1" />
            <path d="M545.227 622.922C-43.5701 1026.17 -139.141 377.65 -541.102 548.951"
                stroke="#4157FF" stroke-width="2.0323" stroke-miterlimit="10" stroke-linecap="round"
                stroke-linejoin="round" stroke-dasharray="1 1" />
            <path d="M546.704 609.295C-54.3937 1027.51 -154.638 363.126 -542.209 523.795"
                stroke="#4157FF" stroke-width="1.9677" stroke-miterlimit="10" stroke-linecap="round"
                stroke-linejoin="round" stroke-dasharray="1 1" />
            <path d="M548.179 595.52C-65.2178 1028.71 -170.136 348.751 -543.316 498.789"
                stroke="#4157FF" stroke-width="1.9032" stroke-miterlimit="10" stroke-linecap="round"
                stroke-linejoin="round" stroke-dasharray="1 1" />
            <path d="M549.532 581.893C-76.042 1030.06 -185.511 334.376 -544.546 473.633"
                stroke="#4157FF" stroke-width="1.8387" stroke-miterlimit="10" stroke-linecap="round"
                stroke-linejoin="round" stroke-dasharray="1 1" />
            <path d="M551.008 568.267C-86.8658 1031.41 -201.009 320.001 -545.653 448.626"
                stroke="#4157FF" stroke-width="1.7742" stroke-miterlimit="10" stroke-linecap="round"
                stroke-linejoin="round" stroke-dasharray="1 1" />
            <path d="M552.484 554.641C-97.5665 1032.76 -216.507 305.476 -546.76 423.47"
                stroke="#4157FF" stroke-width="1.7097" stroke-miterlimit="10" stroke-linecap="round"
                stroke-linejoin="round" stroke-dasharray="1 1" />
            <path d="M553.838 540.865C-108.513 1033.95 -232.004 291.102 -547.99 398.314"
                stroke="#4157FF" stroke-width="1.6452" stroke-miterlimit="10" stroke-linecap="round"
                stroke-linejoin="round" stroke-dasharray="1 1" />
            <path d="M555.314 527.239C-119.337 1035.15 -247.503 276.577 -549.22 373.158"
                stroke="#4157FF" stroke-width="1.5806" stroke-miterlimit="10" stroke-linecap="round"
                stroke-linejoin="round" stroke-dasharray="1 1" />
            <path d="M556.666 513.613C-130.161 1036.5 -263.001 262.202 -550.327 348.152"
                stroke="#4157FF" stroke-width="1.5161" stroke-miterlimit="10" stroke-linecap="round"
                stroke-linejoin="round" stroke-dasharray="1 1" />
            <path d="M558.143 499.987C-140.985 1037.85 -278.498 247.827 -551.557 323.146"
                stroke="#4157FF" stroke-width="1.4516" stroke-miterlimit="10" stroke-linecap="round"
                stroke-linejoin="round" stroke-dasharray="1 1" />
            <path d="M559.618 486.36C-151.81 1039.19 -293.997 233.452 -552.664 297.99"
                stroke="#4157FF" stroke-width="1.3871" stroke-miterlimit="10" stroke-linecap="round"
                stroke-linejoin="round" stroke-dasharray="1 1" />
            <path d="M560.971 472.584C-162.633 1040.39 -309.494 219.078 -553.894 272.834"
                stroke="#4157FF" stroke-width="1.3226" stroke-miterlimit="10" stroke-linecap="round"
                stroke-linejoin="round" stroke-dasharray="1 1" />
            <path d="M562.447 458.958C-173.457 1041.74 -324.992 204.553 -555.001 247.827"
                stroke="#4157FF" stroke-width="1.2581" stroke-miterlimit="10" stroke-linecap="round"
                stroke-linejoin="round" stroke-dasharray="1 1" />
            <path d="M563.923 445.332C-184.281 1043.09 -340.491 190.178 -556.231 222.671"
                stroke="#4157FF" stroke-width="1.1935" stroke-miterlimit="10" stroke-linecap="round"
                stroke-linejoin="round" stroke-dasharray="1 1" />
            <path d="M565.276 431.706C-195.105 1044.43 -355.988 175.803 -557.338 197.665"
                stroke="#4157FF" stroke-width="1.129" stroke-miterlimit="10" stroke-linecap="round"
                stroke-linejoin="round" stroke-dasharray="1 1" />
            <path d="M566.752 417.93C-205.929 1045.63 -371.363 161.279 -558.568 172.359"
                stroke="#4157FF" stroke-width="1.0645" stroke-miterlimit="10" stroke-linecap="round"
                stroke-linejoin="round" stroke-dasharray="1 1" />
            <path d="M568.105 404.304C-216.876 1046.98 -386.984 146.904 -559.798 147.353"
                stroke="#4157FF" stroke-miterlimit="10" stroke-linecap="round"
                stroke-linejoin="round" stroke-dasharray="1 1" />
        </g>
    </g>
    <defs>
        <linearGradient id="paint0_linear_1_131" x1="187" y1="0" x2="187" y2="667"
            gradientUnits="userSpaceOnUse">
            <stop stop-color="#2D9CDB" />
            <stop offset="1" stop-color="#2F80ED" />
        </linearGradient>
    </defs>
</svg>
    