<svg width="246" height="197" viewBox="0 0 246 197" fill="none" xmlns="http://www.w3.org/2000/svg">
    <circle cx="122" cy="107" r="49" fill="#5E17EB"/>
    <g filter="url(#filter0_d_1_1316)">
    <path d="M105 110.5L117.051 121L139 93" stroke="white" stroke-width="5" stroke-linecap="round" stroke-linejoin="round"/>
    </g>
    <rect x="127.184" y="29.2645" width="4.90082" height="5.71762" rx="1" transform="rotate(-10.9119 127.184 29.2645)" fill="url(#paint0_linear_1_1316)"/>
    <rect x="204.182" y="151.446" width="4.90082" height="5.71762" rx="1" transform="rotate(29.09 204.182 151.446)" fill="url(#paint1_linear_1_1316)"/>
    <rect x="66.635" y="189.33" width="4.90082" height="5.71762" rx="1" transform="rotate(29.09 66.635 189.33)" fill="url(#paint2_linear_1_1316)"/>
    <rect x="94.5338" y="45.3257" width="2.2612" height="2.63806" rx="1" fill="url(#paint3_linear_1_1316)"/>
    <rect x="200.802" y="26.6603" width="4.16433" height="4.85839" rx="1" transform="rotate(27 200.802 26.6603)" fill="url(#paint4_linear_1_1316)"/>
    <rect x="194.364" y="47.9943" width="2.2612" height="2.63806" rx="1" fill="url(#paint5_linear_1_1316)"/>
    <rect x="187.692" y="147.099" width="2.2612" height="2.63806" rx="1" fill="url(#paint6_linear_1_1316)"/>
    <rect x="205.799" y="108.982" width="2.2612" height="2.63806" rx="1" fill="url(#paint7_linear_1_1316)"/>
    <rect x="231.528" y="74.6768" width="2.2612" height="2.63806" rx="1" fill="url(#paint8_linear_1_1316)"/>
    <rect x="210.562" y="135.664" width="2.2612" height="2.63806" rx="1" fill="url(#paint9_linear_1_1316)"/>
    <rect x="164" y="186" width="2.2612" height="2.63806" rx="1" fill="url(#paint10_linear_1_1316)"/>
    <rect x="68.4596" y="35.8156" width="3.22878" height="3.76691" rx="1" transform="rotate(-22.65 68.4596 35.8156)" fill="url(#paint11_linear_1_1316)"/>
    <rect x="7.12952" y="170.402" width="3.22878" height="3.76691" rx="1" transform="rotate(17.3473 7.12952 170.402)" fill="url(#paint12_linear_1_1316)"/>
    <rect x="58.5199" y="58.4766" width="1.22278" height="1.42657" rx="0.611389" transform="rotate(17.3473 58.5199 58.4766)" fill="url(#paint13_linear_1_1316)"/>
    <rect x="183.353" y="66.1" width="1.22278" height="1.42657" rx="0.611389" transform="rotate(17.3473 183.353 66.1)" fill="url(#paint14_linear_1_1316)"/>
    <rect x="233.858" y="88.0175" width="1.22278" height="1.42657" rx="0.611389" transform="rotate(17.3473 233.858 88.0175)" fill="url(#paint15_linear_1_1316)"/>
    <rect x="68.635" y="147.449" width="1.22278" height="1.42657" rx="0.611389" transform="rotate(17.3473 68.635 147.449)" fill="url(#paint16_linear_1_1316)"/>
    <rect x="24.2135" y="13.6885" width="1.22278" height="1.42657" rx="0.611389" transform="rotate(17.3473 24.2135 13.6885)" fill="url(#paint17_linear_1_1316)"/>
    <rect x="33.1708" y="105.852" width="2.32195" height="2.70894" rx="1" transform="rotate(17.3473 33.1708 105.852)" fill="url(#paint18_linear_1_1316)"/>
    <rect x="36.1672" y="140.317" width="2.32195" height="2.70894" rx="1" transform="rotate(17.3473 36.1672 140.317)" fill="url(#paint19_linear_1_1316)"/>
    <rect x="104.632" y="173.551" width="2.32195" height="2.70894" rx="1" transform="rotate(17.3473 104.632 173.551)" fill="url(#paint20_linear_1_1316)"/>
    <rect x="144.026" y="12.7358" width="3.22878" height="3.76691" rx="1" transform="rotate(17.3473 144.026 12.7358)" fill="url(#paint21_linear_1_1316)"/>
    <rect x="45.2446" y="45.1351" width="4.15966" height="4.85293" rx="1" transform="rotate(17.3473 45.2446 45.1351)" fill="url(#paint22_linear_1_1316)"/>
    <rect x="121.367" y="4.52002" width="4.15966" height="4.85293" rx="1" transform="rotate(-92.65 121.367 4.52002)" fill="url(#paint23_linear_1_1316)"/>
    <rect x="10.6427" y="85.7148" width="6.4143" height="7.48335" rx="1" transform="rotate(135.279 10.6427 85.7148)" fill="url(#paint24_linear_1_1316)"/>
    <rect x="238.197" y="178.839" width="6.4143" height="7.48335" rx="1" transform="rotate(-11.7361 238.197 178.839)" fill="url(#paint25_linear_1_1316)"/>
    <defs>
    <filter id="filter0_d_1_1316" x="99.5" y="90.4999" width="45.0001" height="40.0001" filterUnits="userSpaceOnUse" color-interpolation-filters="sRGB">
    <feFlood flood-opacity="0" result="BackgroundImageFix"/>
    <feColorMatrix in="SourceAlpha" type="matrix" values="0 0 0 0 0 0 0 0 0 0 0 0 0 0 0 0 0 0 127 0" result="hardAlpha"/>
    <feOffset dy="4"/>
    <feGaussianBlur stdDeviation="1.5"/>
    <feColorMatrix type="matrix" values="0 0 0 0 0 0 0 0 0 0 0 0 0 0 0 0 0 0 0.15 0"/>
    <feBlend mode="normal" in2="BackgroundImageFix" result="effect1_dropShadow_1_1316"/>
    <feBlend mode="normal" in="SourceGraphic" in2="effect1_dropShadow_1_1316" result="shape"/>
    </filter>
    <linearGradient id="paint0_linear_1_1316" x1="129.634" y1="29.2645" x2="129.634" y2="34.9821" gradientUnits="userSpaceOnUse">
    <stop stop-color="#4157FF"/>
    <stop offset="1" stop-color="#A3ADFF"/>
    </linearGradient>
    <linearGradient id="paint1_linear_1_1316" x1="206.633" y1="151.446" x2="206.633" y2="157.164" gradientUnits="userSpaceOnUse">
    <stop stop-color="#4157FF"/>
    <stop offset="1" stop-color="#A3ADFF"/>
    </linearGradient>
    <linearGradient id="paint2_linear_1_1316" x1="69.0854" y1="189.33" x2="69.0854" y2="195.048" gradientUnits="userSpaceOnUse">
    <stop stop-color="#4157FF"/>
    <stop offset="1" stop-color="#A3ADFF"/>
    </linearGradient>
    <linearGradient id="paint3_linear_1_1316" x1="95.6644" y1="45.3257" x2="95.6644" y2="47.9637" gradientUnits="userSpaceOnUse">
    <stop stop-color="#4157FF"/>
    <stop offset="1" stop-color="#A3ADFF"/>
    </linearGradient>
    <linearGradient id="paint4_linear_1_1316" x1="202.884" y1="26.6603" x2="202.884" y2="31.5187" gradientUnits="userSpaceOnUse">
    <stop stop-color="#4157FF"/>
    <stop offset="1" stop-color="#A3ADFF"/>
    </linearGradient>
    <linearGradient id="paint5_linear_1_1316" x1="195.494" y1="47.9943" x2="195.494" y2="50.6323" gradientUnits="userSpaceOnUse">
    <stop stop-color="#4157FF"/>
    <stop offset="1" stop-color="#A3ADFF"/>
    </linearGradient>
    <linearGradient id="paint6_linear_1_1316" x1="188.822" y1="147.099" x2="188.822" y2="149.738" gradientUnits="userSpaceOnUse">
    <stop stop-color="#4157FF"/>
    <stop offset="1" stop-color="#A3ADFF"/>
    </linearGradient>
    <linearGradient id="paint7_linear_1_1316" x1="206.929" y1="108.982" x2="206.929" y2="111.62" gradientUnits="userSpaceOnUse">
    <stop stop-color="#4157FF"/>
    <stop offset="1" stop-color="#A3ADFF"/>
    </linearGradient>
    <linearGradient id="paint8_linear_1_1316" x1="232.659" y1="74.6768" x2="232.659" y2="77.3148" gradientUnits="userSpaceOnUse">
    <stop stop-color="#4157FF"/>
    <stop offset="1" stop-color="#A3ADFF"/>
    </linearGradient>
    <linearGradient id="paint9_linear_1_1316" x1="211.693" y1="135.664" x2="211.693" y2="138.302" gradientUnits="userSpaceOnUse">
    <stop stop-color="#4157FF"/>
    <stop offset="1" stop-color="#A3ADFF"/>
    </linearGradient>
    <linearGradient id="paint10_linear_1_1316" x1="165.131" y1="186" x2="165.131" y2="188.638" gradientUnits="userSpaceOnUse">
    <stop stop-color="#4157FF"/>
    <stop offset="1" stop-color="#A3ADFF"/>
    </linearGradient>
    <linearGradient id="paint11_linear_1_1316" x1="70.074" y1="35.8156" x2="70.074" y2="39.5825" gradientUnits="userSpaceOnUse">
    <stop stop-color="#4157FF"/>
    <stop offset="1" stop-color="#A3ADFF"/>
    </linearGradient>
    <linearGradient id="paint12_linear_1_1316" x1="8.74391" y1="170.402" x2="8.74391" y2="174.169" gradientUnits="userSpaceOnUse">
    <stop stop-color="#4157FF"/>
    <stop offset="1" stop-color="#A3ADFF"/>
    </linearGradient>
    <linearGradient id="paint13_linear_1_1316" x1="59.1313" y1="58.4766" x2="59.1313" y2="59.9031" gradientUnits="userSpaceOnUse">
    <stop stop-color="#4157FF"/>
    <stop offset="1" stop-color="#A3ADFF"/>
    </linearGradient>
    <linearGradient id="paint14_linear_1_1316" x1="183.965" y1="66.1" x2="183.965" y2="67.5265" gradientUnits="userSpaceOnUse">
    <stop stop-color="#4157FF"/>
    <stop offset="1" stop-color="#A3ADFF"/>
    </linearGradient>
    <linearGradient id="paint15_linear_1_1316" x1="234.469" y1="88.0175" x2="234.469" y2="89.444" gradientUnits="userSpaceOnUse">
    <stop stop-color="#4157FF"/>
    <stop offset="1" stop-color="#A3ADFF"/>
    </linearGradient>
    <linearGradient id="paint16_linear_1_1316" x1="69.2464" y1="147.449" x2="69.2464" y2="148.875" gradientUnits="userSpaceOnUse">
    <stop stop-color="#4157FF"/>
    <stop offset="1" stop-color="#A3ADFF"/>
    </linearGradient>
    <linearGradient id="paint17_linear_1_1316" x1="24.8249" y1="13.6885" x2="24.8249" y2="15.1151" gradientUnits="userSpaceOnUse">
    <stop stop-color="#4157FF"/>
    <stop offset="1" stop-color="#A3ADFF"/>
    </linearGradient>
    <linearGradient id="paint18_linear_1_1316" x1="34.3318" y1="105.852" x2="34.3318" y2="108.561" gradientUnits="userSpaceOnUse">
    <stop stop-color="#4157FF"/>
    <stop offset="1" stop-color="#A3ADFF"/>
    </linearGradient>
    <linearGradient id="paint19_linear_1_1316" x1="37.3282" y1="140.317" x2="37.3282" y2="143.026" gradientUnits="userSpaceOnUse">
    <stop stop-color="#4157FF"/>
    <stop offset="1" stop-color="#A3ADFF"/>
    </linearGradient>
    <linearGradient id="paint20_linear_1_1316" x1="105.793" y1="173.551" x2="105.793" y2="176.26" gradientUnits="userSpaceOnUse">
    <stop stop-color="#4157FF"/>
    <stop offset="1" stop-color="#A3ADFF"/>
    </linearGradient>
    <linearGradient id="paint21_linear_1_1316" x1="145.641" y1="12.7358" x2="145.641" y2="16.5028" gradientUnits="userSpaceOnUse">
    <stop stop-color="#4157FF"/>
    <stop offset="1" stop-color="#A3ADFF"/>
    </linearGradient>
    <linearGradient id="paint22_linear_1_1316" x1="47.3245" y1="45.1351" x2="47.3245" y2="49.9881" gradientUnits="userSpaceOnUse">
    <stop stop-color="#4157FF"/>
    <stop offset="1" stop-color="#A3ADFF"/>
    </linearGradient>
    <linearGradient id="paint23_linear_1_1316" x1="123.447" y1="4.52002" x2="123.447" y2="9.37295" gradientUnits="userSpaceOnUse">
    <stop stop-color="#4157FF"/>
    <stop offset="1" stop-color="#A3ADFF"/>
    </linearGradient>
    <linearGradient id="paint24_linear_1_1316" x1="13.8498" y1="85.7148" x2="13.8498" y2="93.1982" gradientUnits="userSpaceOnUse">
    <stop stop-color="#4157FF"/>
    <stop offset="1" stop-color="#A3ADFF"/>
    </linearGradient>
    <linearGradient id="paint25_linear_1_1316" x1="241.405" y1="178.839" x2="241.405" y2="186.323" gradientUnits="userSpaceOnUse">
    <stop stop-color="#4157FF"/>
    <stop offset="1" stop-color="#A3ADFF"/>
    </linearGradient>
    </defs>
    </svg>
    