<svg width="144" height="126" viewBox="0 0 144 126" fill="none" xmlns="http://www.w3.org/2000/svg">
    <circle cx="63" cy="63" r="63" fill="#EFF7FF" />
    <circle cx="79.1628" cy="72.0971" r="49.17" fill="white" stroke="#A7B4CF" stroke-width="1.2" />
    <path opacity="0.5"
        d="M95.5483 117.721C56.4788 120.669 35.8076 89.1556 30.5861 73.0303C30.5861 90.0771 41.1827 105.281 51.7794 112.192C62.3761 119.103 75.7371 124.171 95.5483 117.721Z"
        fill="#DCE0EB" />
    <mask id="mask0_30_132" style="mask-type:alpha" maskUnits="userSpaceOnUse" x="30" y="23"
        width="99" height="98">
        <circle cx="79.4229" cy="72.1088" r="48.8368" fill="url(#paint0_linear_30_132)" />
    </mask>
    <g mask="url(#mask0_30_132)">
        <circle opacity="0.4" cx="40.9526" cy="48.3818" r="10.788" fill="url(#paint1_linear_30_132)"
            stroke="#B2BDD5" />
        <circle opacity="0.4" cx="96.3549" cy="32.8324" r="16.4321"
            fill="url(#paint2_linear_30_132)" stroke="#B2BDD5" />
        <circle opacity="0.4" cx="118.857" cy="89.4282" r="6.6833" fill="url(#paint3_linear_30_132)"
            stroke="#B2BDD5" />
        <circle opacity="0.5" cx="70.1142" cy="72.0147" r="3.59165"
            fill="url(#paint4_linear_30_132)" />
        <circle opacity="0.4" cx="70.1142" cy="72.0147" r="3.09165"
            fill="url(#paint5_linear_30_132)" stroke="#B2BDD5" />
    </g>
    <path
        d="M30.932 83.6415C30.4189 83.8981 21.7746 92.5655 18.6178 97.7516C4.25122 121.354 42.9897 109.553 66.0789 98.2647C87.8853 87.6038 129.805 62.0917 140.477 44.6465C145.266 37.5488 146.532 25.8673 113.283 35.924"
        stroke="#A7B4CF" stroke-width="1.5" />
    <circle opacity="0.4" cx="17.5916" cy="81.3326" r="3.59165" fill="url(#paint6_linear_30_132)" />
    <circle opacity="0.4" cx="17.5916" cy="81.2291" r="3.09165" fill="#F6F7FB" stroke="#B2BDD5" />
    <circle opacity="0.4" cx="66.592" cy="17.4526" r="1.29582" fill="#F6F7FB" stroke="#B2BDD5" />
    <circle opacity="0.4" cx="138.425" cy="63.1179" r="2.32201" fill="#F6F7FB" stroke="#B2BDD5" />
    <circle opacity="0.4" cx="105.844" cy="24.3794" r="1.03928" fill="#F6F7FB" stroke="#B2BDD5" />
    <path
        d="M102.765 3.08605C105.673 2.74398 112.873 3.23997 118.414 7.96043C123.956 12.6809 126.196 17.7947 126.624 19.7616"
        stroke="#1987FB" stroke-width="1.5" stroke-linecap="round" stroke-linejoin="round" />
    <path
        d="M102.765 10.0128C104.817 9.67071 109.948 9.85883 114.053 13.3479C118.158 16.8369 120.039 20.9587 120.467 22.5835"
        stroke="#1987FB" stroke-width="1.5" stroke-linecap="round" stroke-linejoin="round" />
    <path
        d="M102.508 16.4266C103.877 16.0845 106.994 16.3685 109.948 18.479C113.54 21.0444 113.967 23.6099 114.31 24.6361"
        stroke="#1987FB" stroke-width="1.5" stroke-linecap="round" stroke-linejoin="round" />
    <defs>
        <linearGradient id="paint0_linear_30_132" x1="79.4229" y1="23.272" x2="79.4229" y2="120.946"
            gradientUnits="userSpaceOnUse">
            <stop stop-color="white" />
            <stop offset="1" stop-color="#E1E3E9" />
        </linearGradient>
        <linearGradient id="paint1_linear_30_132" x1="40.9526" y1="37.0938" x2="40.9526"
            y2="59.6698" gradientUnits="userSpaceOnUse">
            <stop stop-color="white" />
            <stop offset="1" stop-color="#E1E3E9" />
        </linearGradient>
        <linearGradient id="paint2_linear_30_132" x1="96.3549" y1="15.9004" x2="96.3549"
            y2="49.7645" gradientUnits="userSpaceOnUse">
            <stop stop-color="white" />
            <stop offset="1" stop-color="#E1E3E9" />
        </linearGradient>
        <linearGradient id="paint3_linear_30_132" x1="118.857" y1="82.2449" x2="118.857"
            y2="96.6115" gradientUnits="userSpaceOnUse">
            <stop stop-color="white" />
            <stop offset="1" stop-color="#E1E3E9" />
        </linearGradient>
        <linearGradient id="paint4_linear_30_132" x1="70.1142" y1="68.4231" x2="70.1142"
            y2="75.6064" gradientUnits="userSpaceOnUse">
            <stop stop-color="white" />
            <stop offset="1" stop-color="#E1E3E9" />
        </linearGradient>
        <linearGradient id="paint5_linear_30_132" x1="70.1142" y1="68.4231" x2="70.1142"
            y2="75.6064" gradientUnits="userSpaceOnUse">
            <stop stop-color="white" />
            <stop offset="1" stop-color="#E1E3E9" />
        </linearGradient>
        <linearGradient id="paint6_linear_30_132" x1="17.5916" y1="77.741" x2="17.5916" y2="84.9243"
            gradientUnits="userSpaceOnUse">
            <stop stop-color="#DCE0EB" />
            <stop offset="1" stop-color="#DCE0EB" />
        </linearGradient>
    </defs>
</svg>
    